<svg width="90" height="90" viewBox="0 0 90 90" fill="none" xmlns="http://www.w3.org/2000/svg">
<path d="M18.4339 64.8925C18.4691 65.7897 18.8398 66.6407 19.4716 67.2756C20.1034 67.9106 20.9504 68.2829 21.8428 68.3183L26.2871 68.5055L21.8214 68.6796C20.9326 68.7115 20.0883 69.0786 19.4565 69.7078C18.8251 70.337 18.4522 71.1821 18.4126 72.075L18.2089 76.5674L18.0704 72.1272C18.0423 71.2251 17.6752 70.3671 17.0425 69.7264C16.4098 69.0857 15.5588 68.7101 14.6615 68.6753L10.2475 68.5055L14.6874 68.3357C15.5807 68.3013 16.4277 67.9293 17.0599 67.2942C17.6917 66.659 18.0619 65.8075 18.0962 64.9099L18.2651 60.448L18.4339 64.8925Z" fill="black"/>
<path d="M52.926 8.45306C52.9491 9.07634 53.205 9.66783 53.6424 10.1089C54.0799 10.5504 54.6667 10.8092 55.2855 10.8338L58.3662 10.9502L55.2499 11.0711C54.6348 11.0953 54.051 11.351 53.6141 11.7875C53.1772 12.2241 52.9189 12.8102 52.8904 13.4295L52.7479 16.5674L52.6545 13.4832C52.6346 12.8568 52.3796 12.2613 51.9408 11.8171C51.5021 11.3729 50.9123 11.1128 50.2905 11.089L47.2276 10.9681L50.3083 10.8517C50.9272 10.8262 51.5139 10.5674 51.9519 10.1263C52.3899 9.6853 52.6471 9.09425 52.6722 8.47096L52.788 5.37335L52.926 8.45306Z" fill="black"/>
</svg>
