<svg width="32" height="32" viewBox="0 0 32 32" fill="none" xmlns="http://www.w3.org/2000/svg">
<path d="M17.7678 8.23258L23.7678 14.2328C24.7441 15.2091 24.7441 16.7921 23.7678 17.7684L17.7678 8.23258ZM17.7678 8.23258C17.7678 8.23258 17.7678 8.23258 17.7678 8.23257C16.7915 7.25622 15.2085 7.25622 14.2322 8.23258L8.23223 14.2328L8.23223 14.2328M17.7678 8.23258L8.23223 14.2328M8.23223 14.2328C7.25593 15.2091 7.25593 16.7921 8.23223 17.7684M8.23223 14.2328V17.7684M8.23223 17.7684C9.20853 18.7448 10.7915 18.7448 11.7678 17.7684M8.23223 17.7684L11.7678 17.7684M11.7678 17.7684C11.7678 17.7684 11.7678 17.7684 11.7678 17.7684M11.7678 17.7684L11.7678 17.7684M11.7678 17.7684L13.5 16.0361V22.0008C13.5 23.3816 14.6192 24.5009 16 24.5009C17.3808 24.5009 18.5 23.3816 18.5 22.0008V16.0361L20.2322 17.7684C21.2085 18.7448 22.7915 18.7448 23.7678 17.7685L11.7678 17.7684ZM31.5 16.0006C31.5 24.5614 24.5604 31.5012 16 31.5012C7.4396 31.5012 0.5 24.5614 0.5 16.0006C0.5 7.43985 7.4396 0.5 16 0.5C24.5604 0.5 31.5 7.43984 31.5 16.0006Z" fill="#FFDB7D" stroke="#FFCB45"/>
</svg>
