<svg width="50" height="50" viewBox="0 0 50 50" fill="none" xmlns="http://www.w3.org/2000/svg">
<path d="M6.34732e-06 1.58826V36.9166C0.00213446 37.2 0.0894073 37.4779 0.252983 37.722C0.416559 37.9662 0.650625 38.1681 0.931468 38.3071L6.34732e-06 1.58826ZM6.34732e-06 1.58826C-0.000623866 1.3795 0.0456814 1.17268 0.13626 0.979701M6.34732e-06 1.58826L0.13626 0.979701M0.13626 0.979701C0.226838 0.786724 0.359902 0.611395 0.527802 0.463796M0.13626 0.979701L0.527802 0.463796M0.527802 0.463796C0.695702 0.316196 0.895125 0.199237 1.1146 0.119643M0.527802 0.463796L1.1146 0.119643M1.1146 0.119643C1.33408 0.0400493 1.56929 -0.000608595 1.8067 6.88854e-06L1.1146 0.119643ZM0.200006 36.9158L0.200007 1.58826L0.200005 1.58766C0.199466 1.40911 0.239024 1.23147 0.317308 1.06468C0.395642 0.897789 0.511568 0.74436 0.659851 0.614006C0.808182 0.483609 0.985714 0.37913 1.18279 0.307661C1.37987 0.23619 1.5918 0.19945 1.80618 0.200007H1.8067L48.193 0.200008L48.1936 0.200006C48.408 0.19945 48.62 0.236204 48.8171 0.307701C49.0142 0.379196 49.1917 0.483711 49.3401 0.614151C49.4884 0.744548 49.6043 0.898024 49.6826 1.06496C49.7608 1.23179 49.8003 1.40947 49.7997 1.58806V1.58873V36.916C49.7977 37.1583 49.723 37.3978 49.5805 37.6104C49.4376 37.8236 49.2312 38.0028 48.9796 38.1274L48.9794 38.1274L25.8 49.6226L25.8 49.6225L25.7956 49.6248C25.5497 49.7545 25.3025 49.7999 25.0154 49.8C24.7293 49.7963 24.4488 49.7347 24.1959 49.621L1.02032 38.1279L1.0202 38.1278C0.768507 38.0032 0.561993 37.824 0.419146 37.6107C0.276633 37.398 0.201972 37.1583 0.200006 36.9158ZM3.44204 35.9982V36.1223L3.55334 36.1774L24.925 46.7532L25.0137 46.7971L25.1024 46.7532L46.4745 36.1774L46.5858 36.1223V35.9982V3.20171V3.00171H46.3858H3.64204H3.44204V3.20171V35.9982Z" fill="#F9B300" stroke="black" stroke-width="0.4"/>
</svg>
