<svg width="17" height="16" viewBox="0 0 17 16" fill="none" xmlns="http://www.w3.org/2000/svg">
<path d="M8.18687 4.39289C8.22207 5.27977 8.59276 6.12084 9.22455 6.74846C9.85633 7.37608 10.7033 7.74403 11.5957 7.77909L16.04 7.96408L11.5743 8.1362C10.6855 8.16776 9.84118 8.53058 9.2094 9.15249C8.57806 9.7744 8.20514 10.6097 8.16549 11.4923L7.96187 15.9326L7.82331 11.5439C7.79524 10.6522 7.42811 9.80414 6.79544 9.17086C6.16277 8.53762 5.31177 8.16634 4.41444 8.13191L0.000435832 7.96408L4.44029 7.7963C5.3336 7.76227 6.18058 7.39458 6.81281 6.76678C7.44459 6.13894 7.81484 5.2973 7.84915 4.41011L8.01801 -0.000113491L8.18687 4.39289Z" fill="black"/>
</svg>
