<svg width="48" height="48" viewBox="0 0 48 48" fill="none" xmlns="http://www.w3.org/2000/svg">
<path d="M5.99469e-06 1.72219V35.0878C0.00201588 35.3555 0.0844402 35.6179 0.238928 35.8485C0.393416 36.0792 0.614479 36.2698 0.879719 36.4011L5.99469e-06 1.72219ZM5.99469e-06 1.72219C-0.000589207 1.52503 0.0431435 1.3297 0.12869 1.14744M5.99469e-06 1.72219L0.12869 1.14744M0.12869 1.14744C0.214236 0.965185 0.339908 0.799597 0.49848 0.660197M0.12869 1.14744L0.49848 0.660197M0.49848 0.660197C0.657052 0.520797 0.845396 0.410336 1.05268 0.335164M0.49848 0.660197L1.05268 0.335164M1.05268 0.335164C1.25997 0.259992 1.48211 0.221593 1.70633 0.222174L1.05268 0.335164ZM0.200006 35.0871L0.200007 1.72219L0.200005 1.72159C0.199501 1.55464 0.236486 1.38848 0.309738 1.23242C0.38304 1.07625 0.491574 0.932562 0.630529 0.810407C0.769532 0.68821 0.935984 0.590229 1.12087 0.523182C1.30575 0.456133 1.50461 0.421652 1.70581 0.422174H1.70633L45.5157 0.422175L45.5162 0.422174C45.7174 0.421652 45.9163 0.456146 46.1012 0.523219L46.1694 0.335206L46.1012 0.52322C46.2861 0.590291 46.4526 0.688306 46.5916 0.810543C46.7306 0.93274 46.8391 1.07647 46.9124 1.23268C46.9856 1.38879 47.0225 1.55498 47.022 1.72197V1.72263V35.0872C47.02 35.3138 46.9502 35.5379 46.8168 35.7369C46.683 35.9366 46.4896 36.1046 46.2535 36.2214L46.2534 36.2215L24.3618 47.078L24.3617 47.0779L24.3573 47.0802C24.1271 47.2016 23.8955 47.2443 23.6257 47.2444C23.3571 47.2409 23.0938 47.1831 22.8564 47.0764L0.968576 36.2219L0.968449 36.2218C0.732361 36.105 0.538851 35.9369 0.405092 35.7372C0.271666 35.538 0.201853 35.3138 0.200006 35.0871ZM3.23971 34.2204V34.3446L3.351 34.3997L23.5353 44.3879L23.624 44.4318L23.7127 44.3879L43.8975 34.3997L44.0088 34.3446V34.2204V3.246V3.046H43.8088H3.43971H3.23971V3.246V34.2204Z" fill="#FFDB7D" stroke="black" stroke-width="0.4"/>
</svg>
