<svg width="19" height="17" viewBox="0 0 19 17" fill="none" xmlns="http://www.w3.org/2000/svg">
<path d="M10.7402 0.990589C8.93317 1.51217 6.88249 2.10356 4.22475 2.10356C3.11292 2.10207 2.00653 1.99922 0.935547 1.79782L2.77374 14.5227C2.83878 15.0544 3.19815 15.5505 3.7804 15.9118C4.36264 16.2734 5.12522 16.474 5.91672 16.4736C5.91672 16.4736 8.52304 16.5651 9.39273 16.5651C10.3287 16.5651 13.1354 16.4736 13.1354 16.4736C13.9267 16.4736 14.6891 16.2731 15.2713 15.9118C15.8534 15.5501 16.2127 15.0544 16.2777 14.5227L18.2465 0.461248C17.3667 0.258635 16.4787 0.124024 15.4777 0.124024C13.7465 0.123573 12.3516 0.525575 10.7402 0.990589Z" fill="white"/>
</svg>
