<svg width="35" height="40" viewBox="0 0 35 40" fill="none" xmlns="http://www.w3.org/2000/svg">
<path d="M34.8437 10.9238L34.5653 9.84145C34.3148 8.87027 33.7472 7.95263 32.4521 7.60162C32.0371 7.48934 31.5657 7.44107 31.2475 7.20867C30.9292 6.97623 30.8351 6.61527 30.7616 6.28051C30.6255 5.66612 30.4972 5.05121 30.3575 4.43789C30.2369 3.9106 30.1412 3.31823 29.8271 2.83452C29.4183 2.18496 28.5697 1.80511 27.7258 1.5538C27.2932 1.42953 26.8518 1.32442 26.404 1.23899C24.2957 0.810837 22.079 0.653435 19.91 0.563742C17.3067 0.453178 14.6964 0.486474 12.0992 0.663432C10.1661 0.798769 8.13012 0.962504 6.29312 1.47717C5.62169 1.66555 4.92988 1.89166 4.41932 2.29094C3.79292 2.78151 3.58842 3.5402 4.04579 4.15192C4.37094 4.58637 4.9217 4.89329 5.50584 5.09633C6.26673 5.35797 7.06135 5.55703 7.87652 5.69026C10.1464 6.07643 12.4973 6.22806 14.8162 6.29258C17.3864 6.37244 19.9607 6.30772 22.5186 6.09897C23.1512 6.04549 23.7826 5.98128 24.4129 5.90644C25.1552 5.81882 25.6316 5.07168 25.4129 4.5512C25.1511 3.92896 24.4477 3.6876 23.6522 3.78152C23.535 3.7957 23.4184 3.8088 23.3011 3.82194L23.2166 3.83138C22.9472 3.85759 22.6777 3.88208 22.4082 3.90483C21.8515 3.95099 21.2935 3.98879 20.7341 4.01814C19.4813 4.08529 18.225 4.11628 16.9695 4.11783C15.7358 4.11783 14.5013 4.09107 13.2703 4.02865C12.7086 4.0003 12.1483 3.96429 11.5894 3.92056C11.3351 3.90009 11.0816 3.87858 10.828 3.85444L10.5867 3.83083L10.5342 3.82509L10.2841 3.79725C9.77282 3.73799 9.2616 3.66976 8.75585 3.5874C8.70484 3.57867 8.65915 3.55685 8.62644 3.52546C8.59374 3.49408 8.57589 3.455 8.57589 3.41478C8.57589 3.37455 8.59374 3.33552 8.62644 3.30414C8.65915 3.27275 8.70484 3.25088 8.75585 3.24216H8.76538C9.2037 3.17027 9.64538 3.1089 10.0884 3.05537C10.2361 3.03756 10.3843 3.02004 10.5328 3.00291H10.5369C10.8144 2.98873 11.0932 2.95046 11.3692 2.92525C13.7711 2.73296 16.1872 2.6674 18.6007 2.72905C19.7723 2.75526 20.9434 2.80827 22.1096 2.89956C22.3605 2.91951 22.61 2.9405 22.8595 2.96408C22.9549 2.973 23.051 2.98352 23.1471 2.99244L23.3407 3.01395C23.9051 3.07863 24.4665 3.15717 25.025 3.24953C25.8525 3.38801 26.915 3.43314 27.2834 4.13097C27.4003 4.35238 27.4536 4.59844 27.5183 4.83088L27.6011 5.12728C27.6032 5.13262 27.6047 5.13807 27.6057 5.14357C27.8008 5.84312 27.9959 6.54266 28.191 7.24225C28.2055 7.29391 28.206 7.34732 28.192 7.39909C28.1786 7.45087 28.1511 7.49994 28.1118 7.54319C28.0725 7.58649 28.0218 7.62305 27.9633 7.65061C27.9048 7.67817 27.8391 7.69613 27.7713 7.70342H27.7656L27.6466 7.71601L27.5287 7.72808C27.1551 7.76551 26.781 7.80048 26.4066 7.83302C25.6691 7.8977 24.9305 7.9537 24.1907 8.0009C22.7206 8.09501 21.2476 8.15675 19.7717 8.1861C19.0196 8.20152 18.2678 8.20869 17.5162 8.20761C14.5245 8.20582 11.5354 8.07199 8.56363 7.80678C8.24189 7.77738 7.92019 7.74592 7.59845 7.7139C7.84791 7.73859 7.41714 7.69502 7.3299 7.68558C7.12541 7.66355 6.92092 7.64065 6.71643 7.61683C6.03 7.53762 5.34771 7.44004 4.66267 7.35452C3.83447 7.24958 3.04243 7.30207 2.29333 7.61683C1.67841 7.87584 1.18074 8.27305 0.866658 8.75537C0.54357 9.26955 0.447484 9.82938 0.302964 10.3818C0.158444 10.9343 -0.0664863 11.5288 0.0187355 12.0959C0.202063 13.32 1.31383 14.3148 2.91291 14.5372C4.41725 14.7471 5.92983 14.9171 7.44643 15.0619C13.4041 15.6235 19.4229 15.6907 25.3992 15.2623C25.8859 15.2273 26.3719 15.1892 26.857 15.148C27.0086 15.1351 27.1623 15.1485 27.3062 15.1873C27.45 15.226 27.5809 15.289 27.6891 15.3717C27.7972 15.4544 27.8805 15.5547 27.9317 15.6652C27.983 15.7758 28.0016 15.8937 27.9861 16.0105L27.8345 17.1427C27.5297 19.4306 27.2249 21.7184 26.9201 24.0059C26.6019 26.4082 26.2817 28.8103 25.9595 31.2121C25.8686 31.8887 25.7778 32.565 25.6868 33.2413C25.5996 33.9068 25.5873 34.5939 25.423 35.2519C25.1641 36.2862 24.2541 36.9219 22.9263 37.1541C21.7098 37.3671 20.4671 37.4791 19.2196 37.4878C17.8366 37.4934 16.4542 37.4464 15.0712 37.452C13.5948 37.4583 11.7864 37.3536 10.6467 36.5076C9.64538 35.7648 9.50702 34.6015 9.37067 33.5958C9.1889 32.2643 9.00873 30.9329 8.83016 29.6014L7.82814 22.199L7.1799 17.4092C7.16903 17.33 7.15811 17.2518 7.14787 17.1721C7.0702 16.6008 6.54464 16.0415 5.71649 16.0703C5.00755 16.0944 4.2019 16.5582 4.28505 17.1721L4.76559 20.723L5.75938 28.0684C6.04252 30.155 6.32494 32.2416 6.60668 34.3286C6.66122 34.7285 6.71234 35.1296 6.76957 35.5291C7.08107 37.714 9.24866 38.8914 11.9329 39.2227C13.5007 39.4171 15.1066 39.4569 16.6975 39.4769C18.7369 39.5019 20.7969 39.5625 22.8029 39.2781C25.7755 38.8583 28.0057 37.3305 28.3239 34.9603C28.415 34.2765 28.5061 33.5918 28.5966 32.9076C28.8988 30.6437 29.2005 28.3797 29.5022 26.1156L30.4874 18.7178L30.9396 15.3274C30.9618 15.1593 31.0545 15.0012 31.2024 14.8766C31.351 14.7519 31.5476 14.6673 31.7628 14.6354C32.613 14.5078 33.4254 14.2901 34.0302 13.7922C34.9927 12.9994 35.1841 11.9658 34.8437 10.9238ZM2.86929 11.6552C2.88223 11.6505 2.85837 11.736 2.84818 11.7759C2.84611 11.7156 2.8502 11.662 2.86929 11.6552ZM2.95177 12.1463C2.9586 12.1427 2.97904 12.1636 3.00015 12.1888C2.96812 12.1657 2.94768 12.1484 2.9511 12.1463H2.95177ZM3.03291 12.2287C3.06219 12.267 3.07787 12.2911 3.03291 12.2287V12.2287ZM3.19579 12.3305H3.19988C3.19988 12.3342 3.20738 12.3378 3.21013 12.3415C3.20557 12.3375 3.20055 12.3338 3.19512 12.3305H3.19579ZM31.7235 12.1783C31.4182 12.4018 30.9577 12.5057 30.5034 12.5577C25.4047 13.14 20.2318 13.4349 15.0773 13.3048C11.3883 13.2077 7.73816 12.8924 4.08599 12.4952C3.72813 12.4564 3.34031 12.406 3.09422 12.203C2.6307 11.82 2.85837 11.0487 2.97904 10.586C3.08946 10.162 3.30078 9.59694 3.9558 9.5366C4.97826 9.44428 6.16567 9.77637 7.17721 9.89442C8.39505 10.0375 9.61744 10.152 10.8444 10.2381C16.0806 10.6054 21.4048 10.5482 26.618 10.0109C27.568 9.91262 28.5149 9.79844 29.4582 9.66832C30.299 9.55234 31.2304 9.33463 31.7385 10.0046C32.0867 10.4611 32.1328 11.0718 32.079 11.5875C32.0624 11.8122 31.9351 12.0236 31.7225 12.1783H31.7235Z" fill="#0D0C22"/>
</svg>
