<svg width="47" height="46" viewBox="0 0 47 46" fill="none" xmlns="http://www.w3.org/2000/svg">
<path d="M1.38878 15.7779L1.38878 3.2263C14.6466 0.434386 7.18798 1.04881 8.05541 1.05564L43.6108 1.889C44.0967 1.88742 20.5284 3.32948 43.6108 1.889C44.0594 2.07648 15.1648 1.889 44.7219 1.889L45.833 7.44453L44.7219 15.7779C44.3924 15.4434 48.0552 39.1112 39.7219 36.3334C22.3954 50.4466 24.4442 45.2223 13.0554 41.0556L6.38875 37.7223C-3.33342 34.1112 1.97456 15.3284 1.38878 15.7779Z" fill="#FFDB7D"/>
<path d="M43.6108 1.889L8.05541 1.05564C7.18798 1.04881 14.6466 0.434387 1.38878 3.2263L1.38878 15.7779C1.97456 15.3284 -3.33342 34.1112 6.38875 37.7223L13.0554 41.0556C24.4442 45.2223 22.3954 50.4466 39.7219 36.3334C48.0552 39.1112 44.3924 15.4434 44.7219 15.7779L45.833 7.44453L44.7219 1.889C15.1648 1.889 44.0594 2.07648 43.6108 1.889ZM43.6108 1.889C44.0967 1.88742 20.5284 3.32948 43.6108 1.889Z" stroke="#020203" stroke-width="0.4" stroke-linecap="round" stroke-linejoin="round"/>
</svg>
